<svg width="49" height="48" viewBox="0 0 49 48" fill="none" xmlns="http://www.w3.org/2000/svg">
<g clip-path="url(#clip0_109_171)">
<path d="M24.51 8.00598C36.66 8.00598 46.51 13.378 46.51 20.006V28.006C46.51 34.634 36.66 40.006 24.51 40.006C12.576 40.006 2.86201 34.824 2.52001 28.36L2.51001 28.006V20.006C2.51001 13.378 12.36 8.00598 24.51 8.00598ZM24.51 32.006C17.07 32.006 10.49 29.99 6.51001 26.906V28.006C6.51001 31.77 14.276 36.006 24.51 36.006C34.53 36.006 42.186 31.946 42.5 28.242L42.51 28.006L42.512 26.906C38.532 29.99 31.952 32.006 24.51 32.006ZM24.51 12.006C14.276 12.006 6.51001 16.242 6.51001 20.006C6.51001 23.77 14.276 28.006 24.51 28.006C34.744 28.006 42.51 23.77 42.51 20.006C42.51 16.242 34.744 12.006 24.51 12.006Z" fill="#00ACEE"/>
<circle cx="38.5" cy="10" r="10" fill="#00ACEE"/>
<path d="M42.6938 7.00629C42.6357 6.9477 42.5666 6.90121 42.4904 6.86948C42.4142 6.83775 42.3325 6.82141 42.25 6.82141C42.1675 6.82141 42.0858 6.83775 42.0097 6.86948C41.9335 6.90121 41.8644 6.9477 41.8063 7.00629L37.15 11.6688L35.1938 9.70628C35.1335 9.64801 35.0622 9.60219 34.9842 9.57144C34.9062 9.54068 34.8228 9.5256 34.739 9.52705C34.6551 9.52851 34.5724 9.54646 34.4954 9.57989C34.4185 9.61333 34.3489 9.66158 34.2907 9.72191C34.2324 9.78224 34.1866 9.85345 34.1558 9.93148C34.1251 10.0095 34.11 10.0928 34.1114 10.1767C34.1129 10.2606 34.1308 10.3433 34.1643 10.4203C34.1977 10.4972 34.246 10.5668 34.3063 10.625L36.7063 13.025C36.7644 13.0836 36.8335 13.1301 36.9097 13.1618C36.9858 13.1936 37.0675 13.2099 37.15 13.2099C37.2325 13.2099 37.3142 13.1936 37.3904 13.1618C37.4666 13.1301 37.5357 13.0836 37.5938 13.025L42.6938 7.92504C42.7572 7.86651 42.8078 7.79548 42.8425 7.71641C42.8771 7.63735 42.895 7.55197 42.895 7.46566C42.895 7.37935 42.8771 7.29397 42.8425 7.21491C42.8078 7.13584 42.7572 7.06481 42.6938 7.00629Z" fill="white"/>
</g>
<defs>
<clipPath id="clip0_109_171">
<rect width="48" height="48" fill="white" transform="translate(0.5)"/>
</clipPath>
</defs>
</svg>
