<svg width="48" height="48" viewBox="0 0 48 48" fill="none" xmlns="http://www.w3.org/2000/svg">
<path d="M6 20C6 12.458 6 8.686 8.344 6.344C10.686 4 14.458 4 22 4H26C33.542 4 37.314 4 39.656 6.344C42 8.686 42 12.458 42 20V28C42 35.542 42 39.314 39.656 41.656C37.314 44 33.542 44 26 44H22C14.458 44 10.686 44 8.344 41.656C6 39.314 6 35.542 6 28V20Z" stroke="#00ACEE" stroke-width="1.5"/>
<path d="M16 20H32M16 28H26" stroke="#00ACEE" stroke-width="1.5" stroke-linecap="round"/>
<circle cx="38" cy="10" r="10" fill="#00ACEE"/>
<path d="M42.1938 7.00629C42.1357 6.9477 42.0666 6.90121 41.9904 6.86948C41.9142 6.83775 41.8325 6.82141 41.75 6.82141C41.6675 6.82141 41.5858 6.83775 41.5097 6.86948C41.4335 6.90121 41.3644 6.9477 41.3063 7.00629L36.65 11.6688L34.6938 9.70628C34.6335 9.64801 34.5622 9.60219 34.4842 9.57144C34.4062 9.54068 34.3228 9.5256 34.239 9.52705C34.1551 9.52851 34.0724 9.54646 33.9954 9.57989C33.9185 9.61333 33.8489 9.66158 33.7907 9.72191C33.7324 9.78224 33.6866 9.85345 33.6558 9.93148C33.6251 10.0095 33.61 10.0928 33.6114 10.1767C33.6129 10.2606 33.6308 10.3433 33.6643 10.4203C33.6977 10.4972 33.746 10.5668 33.8063 10.625L36.2063 13.025C36.2644 13.0836 36.3335 13.1301 36.4097 13.1618C36.4858 13.1936 36.5675 13.2099 36.65 13.2099C36.7325 13.2099 36.8142 13.1936 36.8904 13.1618C36.9666 13.1301 37.0357 13.0836 37.0938 13.025L42.1938 7.92504C42.2572 7.86651 42.3078 7.79548 42.3425 7.71641C42.3771 7.63735 42.395 7.55197 42.395 7.46566C42.395 7.37935 42.3771 7.29397 42.3425 7.21491C42.3078 7.13584 42.2572 7.06481 42.1938 7.00629Z" fill="white"/>
</svg>
