<svg width="49" height="48" viewBox="0 0 49 48" fill="none" xmlns="http://www.w3.org/2000/svg">
<g clip-path="url(#clip0_109_193)">
<path d="M23.3 7.19997C23.5809 7.19987 23.8529 7.2983 24.0686 7.4781C24.2844 7.6579 24.4302 7.90769 24.4808 8.18397L24.5 8.39997V15.6C24.5003 16.9831 24.0227 18.324 23.148 19.3954C22.2733 20.4669 21.0552 21.2033 19.7 21.48V39.6C19.7006 39.8998 19.5888 40.189 19.3868 40.4106C19.1848 40.6322 18.9071 40.7702 18.6084 40.7973C18.3098 40.8244 18.0118 40.7387 17.7732 40.557C17.5346 40.3754 17.3726 40.111 17.3192 39.816L17.3 39.6V21.48C16.014 21.217 14.8497 20.5396 13.9853 19.5518C13.121 18.5639 12.6043 17.3199 12.5144 16.0104L12.5 15.6V8.39997C12.4995 8.1001 12.6112 7.81089 12.8132 7.58929C13.0153 7.36769 13.2929 7.22976 13.5916 7.20266C13.8902 7.17557 14.1882 7.26127 14.4268 7.44289C14.6654 7.62451 14.8274 7.88889 14.8808 8.18397L14.9 8.39997V15.6C14.8996 16.3447 15.1302 17.0713 15.5601 17.6795C15.9899 18.2878 16.5978 18.7477 17.3 18.996V8.39997C17.2995 8.1001 17.4112 7.81089 17.6132 7.58929C17.8153 7.36769 18.0929 7.22976 18.3916 7.20266C18.6902 7.17557 18.9882 7.26127 19.2268 7.44289C19.4654 7.62451 19.6274 7.88889 19.6808 8.18397L19.7 8.39997V18.9936C20.9912 18.5376 21.944 17.3664 22.0832 15.9576L22.1 15.6V8.39997C22.1 8.08171 22.2264 7.77648 22.4515 7.55144C22.6765 7.32639 22.9817 7.19997 23.3 7.19997ZM35.3 7.19997C35.5809 7.19987 35.8529 7.2983 36.0686 7.4781C36.2844 7.6579 36.4302 7.90769 36.4808 8.18397L36.5 8.39997V39.6C36.5006 39.8998 36.3888 40.189 36.1868 40.4106C35.9848 40.6322 35.7071 40.7702 35.4084 40.7973C35.1098 40.8244 34.8118 40.7387 34.5732 40.557C34.3346 40.3754 34.1726 40.111 34.1192 39.816L34.1 39.6V26.4H30.5C30.2191 26.4001 29.9471 26.3016 29.7314 26.1218C29.5156 25.942 29.3698 25.6922 29.3192 25.416L29.3 25.2V13.2C29.3 11.6087 29.9321 10.0825 31.0574 8.95733C32.1826 7.83211 33.7087 7.19997 35.3 7.19997Z" fill="#00ACEE"/>
<circle cx="38.7041" cy="9.79592" r="9.79592" fill="#00ABEE"/>
<path d="M42.8126 6.86323C42.7557 6.80585 42.6879 6.7603 42.6133 6.72921C42.5387 6.69813 42.4587 6.68213 42.3779 6.68213C42.2971 6.68213 42.217 6.69813 42.1424 6.72921C42.0678 6.7603 42.0001 6.80585 41.9432 6.86323L37.382 11.4306L35.4656 9.50813C35.4065 9.45104 35.3368 9.40616 35.2603 9.37603C35.1839 9.34591 35.1023 9.33113 35.0201 9.33255C34.938 9.33398 34.8569 9.35156 34.7815 9.38432C34.7062 9.41707 34.638 9.46434 34.5809 9.52343C34.5239 9.58253 34.479 9.65229 34.4488 9.72873C34.4187 9.80517 34.4039 9.8868 34.4054 9.96895C34.4068 10.0511 34.4244 10.1322 34.4571 10.2075C34.4899 10.2829 34.5372 10.351 34.5962 10.4081L36.9473 12.7591C37.0042 12.8165 37.0719 12.8621 37.1465 12.8932C37.2211 12.9242 37.3011 12.9402 37.382 12.9402C37.4628 12.9402 37.5428 12.9242 37.6174 12.8932C37.692 12.8621 37.7597 12.8165 37.8167 12.7591L42.8126 7.76323C42.8747 7.7059 42.9243 7.63632 42.9582 7.55887C42.9922 7.48142 43.0097 7.39778 43.0097 7.31323C43.0097 7.22868 42.9922 7.14504 42.9582 7.06759C42.9243 6.99014 42.8747 6.92056 42.8126 6.86323Z" fill="white"/>
</g>
<defs>
<clipPath id="clip0_109_193">
<rect width="48" height="48" fill="white" transform="translate(0.5)"/>
</clipPath>
</defs>
</svg>
