<svg width="48" height="48" viewBox="0 0 48 48" fill="none" xmlns="http://www.w3.org/2000/svg">
<path fill-rule="evenodd" clip-rule="evenodd" d="M18.8621 8.353C18.2941 9.685 18.2481 11.39 18.3051 13H37.0001C37.5521 13 38.0061 13.45 37.9431 13.998C37.5581 17.363 35.2441 20.291 31.8771 22.095C31.9621 22.488 32.0001 22.893 32.0001 23.303C32.0001 25.122 30.6231 26.558 29.1511 27.47C28.1768 28.066 27.1128 28.5012 26.0001 28.759V26.692C26.738 26.4797 27.4439 26.1692 28.0991 25.769C29.3771 24.978 30.0001 24.066 30.0001 23.303C30.0001 23.179 29.9951 23.061 29.9861 22.947C28.4891 23.504 26.8461 23.859 25.1151 23.966V32H23.1151V23.978C16.2171 23.64 10.6731 19.378 10.0571 13.998C9.99414 13.45 10.4471 13 11.0001 13H16.3041C16.2471 11.367 16.2831 9.302 17.0221 7.569C17.4461 6.574 18.1121 5.659 19.1351 5.003C20.1551 4.35 21.4521 4 23.0581 4C25.0251 4 26.6251 4.714 27.7141 5.406C28.2611 5.753 28.6891 6.101 28.9841 6.365C29.1459 6.50999 29.3013 6.6618 29.4501 6.82L29.4601 6.83L29.4621 6.834L29.4641 6.835C29.4641 6.835 29.4641 6.837 28.7301 7.488L29.4651 6.837C29.6354 7.03608 29.7208 7.29404 29.7029 7.55542C29.685 7.81679 29.5652 8.0607 29.3694 8.23469C29.1735 8.40868 28.9172 8.49885 28.6555 8.48582C28.3938 8.47279 28.1477 8.35759 27.9701 8.165L27.9601 8.154C27.8606 8.05013 27.7572 7.95006 27.6501 7.854C27.3354 7.57366 26.9983 7.31948 26.6421 7.094C25.7621 6.536 24.5331 6 23.0581 6C21.7421 6 20.8431 6.284 20.2151 6.686C19.5911 7.086 19.1601 7.653 18.8621 8.353ZM12.3061 15C13.4811 18.76 17.9731 22 24.0001 22C30.0271 22 34.5201 18.76 35.6941 15H12.3061Z" fill="#00ACEE"/>
<path d="M16 42V44H32V42H28.981C29.641 41.188 30 40.165 30 39C30 37.455 29.368 36.16 28.243 35.276C27.143 34.413 25.655 34 24 34C22.517 34 21.2 33.87 20.281 33.461C19.84 33.265 19.534 33.023 19.335 32.739C19.141 32.462 19 32.075 19 31.499C19 30.925 19.14 30.539 19.335 30.261C19.534 29.977 19.84 29.735 20.281 29.539C20.758 29.327 21.341 29.189 22 29.107V27.093C21.106 27.189 20.23 27.373 19.469 27.711C18.785 28.015 18.154 28.461 17.696 29.114C17.234 29.774 17 30.575 17 31.5C17 32.425 17.234 33.226 17.696 33.886C18.154 34.539 18.786 34.985 19.469 35.289C20.799 35.88 22.483 35.999 24 35.999C25.346 35.999 26.356 36.337 27.007 36.849C27.632 37.339 28 38.045 28 38.999C28 39.955 27.632 40.66 27.007 41.151C26.55 41.51 25.917 41.783 25.115 41.914V38H23.115V42H16Z" fill="#00ACEE"/>
<circle cx="38.2041" cy="9.79592" r="9.79592" fill="#00ABEE"/>
<path d="M42.3126 6.86323C42.2557 6.80585 42.1879 6.7603 42.1133 6.72921C42.0387 6.69813 41.9587 6.68213 41.8779 6.68213C41.7971 6.68213 41.717 6.69813 41.6424 6.72921C41.5678 6.7603 41.5001 6.80585 41.4432 6.86323L36.882 11.4306L34.9656 9.50813C34.9065 9.45104 34.8368 9.40616 34.7603 9.37603C34.6839 9.34591 34.6023 9.33113 34.5201 9.33255C34.438 9.33398 34.3569 9.35156 34.2815 9.38432C34.2062 9.41707 34.138 9.46434 34.0809 9.52343C34.0239 9.58253 33.979 9.65229 33.9488 9.72873C33.9187 9.80517 33.9039 9.8868 33.9054 9.96895C33.9068 10.0511 33.9244 10.1322 33.9571 10.2075C33.9899 10.2829 34.0372 10.351 34.0962 10.4081L36.4473 12.7591C36.5042 12.8165 36.5719 12.8621 36.6465 12.8932C36.7211 12.9242 36.8011 12.9402 36.882 12.9402C36.9628 12.9402 37.0428 12.9242 37.1174 12.8932C37.192 12.8621 37.2597 12.8165 37.3167 12.7591L42.3126 7.76323C42.3747 7.7059 42.4243 7.63632 42.4582 7.55887C42.4922 7.48142 42.5097 7.39778 42.5097 7.31323C42.5097 7.22868 42.4922 7.14504 42.4582 7.06759C42.4243 6.99014 42.3747 6.92056 42.3126 6.86323Z" fill="white"/>
</svg>
