<svg width="48" height="48" viewBox="0 0 48 48" fill="none" xmlns="http://www.w3.org/2000/svg">
<path d="M40 38V21C40 20.6895 39.9277 20.3833 39.7889 20.1056C39.65 19.8279 39.4484 19.5863 39.2 19.4L25.2 8.9C24.8538 8.64036 24.4327 8.5 24 8.5C23.5673 8.5 23.1462 8.64036 22.8 8.9L8.8 19.4C8.55161 19.5863 8.35 19.8279 8.21115 20.1056C8.07229 20.3833 8 20.6895 8 21V38C8 38.5304 8.21071 39.0391 8.58579 39.4142C8.96086 39.7893 9.46957 40 10 40H18C18.5304 40 19.0391 39.7893 19.4142 39.4142C19.7893 39.0391 20 38.5304 20 38V32C20 31.4696 20.2107 30.9609 20.5858 30.5858C20.9609 30.2107 21.4696 30 22 30H26C26.5304 30 27.0391 30.2107 27.4142 30.5858C27.7893 30.9609 28 31.4696 28 32V38C28 38.5304 28.2107 39.0391 28.5858 39.4142C28.9609 39.7893 29.4696 40 30 40H38C38.5304 40 39.0391 39.7893 39.4142 39.4142C39.7893 39.0391 40 38.5304 40 38Z" stroke="#00ACEE" stroke-width="2" stroke-linecap="round" stroke-linejoin="round"/>
<circle cx="34.2857" cy="9.79592" r="9.79592" fill="#00ABEE"/>
<path d="M38.3941 6.86323C38.3372 6.80585 38.2695 6.7603 38.1949 6.72921C38.1203 6.69813 38.0402 6.68213 37.9594 6.68213C37.8786 6.68213 37.7986 6.69813 37.724 6.72921C37.6494 6.7603 37.5816 6.80585 37.5247 6.86323L32.9635 11.4306L31.0472 9.50813C30.9881 9.45104 30.9183 9.40616 30.8419 9.37603C30.7654 9.34591 30.6838 9.33113 30.6017 9.33255C30.5195 9.33398 30.4384 9.35156 30.3631 9.38432C30.2877 9.41707 30.2196 9.46434 30.1625 9.52343C30.1054 9.58253 30.0605 9.65229 30.0304 9.72873C30.0003 9.80517 29.9855 9.8868 29.9869 9.96895C29.9883 10.0511 30.0059 10.1322 30.0387 10.2075C30.0714 10.2829 30.1187 10.351 30.1778 10.4081L32.5288 12.7591C32.5857 12.8165 32.6534 12.8621 32.728 12.8932C32.8027 12.9242 32.8827 12.9402 32.9635 12.9402C33.0443 12.9402 33.1244 12.9242 33.199 12.8932C33.2736 12.8621 33.3413 12.8165 33.3982 12.7591L38.3941 7.76323C38.4563 7.7059 38.5059 7.63632 38.5398 7.55887C38.5737 7.48142 38.5912 7.39778 38.5912 7.31323C38.5912 7.22868 38.5737 7.14504 38.5398 7.06759C38.5059 6.99014 38.4563 6.92056 38.3941 6.86323Z" fill="white"/>
</svg>
