<svg width="49" height="48" viewBox="0 0 49 48" fill="none" xmlns="http://www.w3.org/2000/svg">
<g clip-path="url(#clip0_109_228)">
<path d="M8.50013 26.512V24H4.50013V20H17.2301L22.9001 16H29.8841L27.7001 10H22.5001V6H30.5001L32.6841 12H40.5001V18H34.8681L37.7801 26.004C39.9897 26.0742 42.096 26.9552 43.6976 28.479C45.2992 30.0027 46.284 32.0626 46.4642 34.2659C46.6444 36.4692 46.0074 38.6617 44.6746 40.4254C43.3418 42.1891 41.4066 43.4006 39.2378 43.8289C37.069 44.2572 34.8185 43.8723 32.9154 42.7477C31.0122 41.623 29.5895 39.8372 28.9186 37.7308C28.2477 35.6245 28.3755 33.3448 29.2777 31.3266C30.1798 29.3085 31.7932 27.6929 33.8101 26.788L31.3381 20H29.4441L26.2801 31.74L26.2761 31.738L26.2801 31.748L20.4301 33.878C20.6413 35.5625 20.3717 37.2723 19.6525 38.8101C18.9333 40.3479 17.7938 41.6509 16.3656 42.5687C14.9374 43.4865 13.2787 43.9817 11.5812 43.997C9.88356 44.0123 8.21625 43.5471 6.77174 42.6552C5.32724 41.7633 4.16445 40.4811 3.41763 38.9565C2.67081 37.4319 2.37042 35.7272 2.55115 34.0392C2.73188 32.3512 3.38635 30.7487 4.439 29.4168C5.49165 28.0849 6.89955 27.0779 8.50013 26.512ZM12.5001 26.054C13.827 26.2026 15.1042 26.6445 16.2392 27.3477C17.3742 28.051 18.3384 28.998 19.0621 30.12L22.9761 28.694L25.3061 20H24.2121L18.5001 24H12.5001V26.054ZM11.5001 40C12.8262 40 14.098 39.4732 15.0357 38.5355C15.9733 37.5979 16.5001 36.3261 16.5001 35C16.5001 33.6739 15.9733 32.4021 15.0357 31.4645C14.098 30.5268 12.8262 30 11.5001 30C10.174 30 8.90228 30.5268 7.96459 31.4645C7.02691 32.4021 6.50013 33.6739 6.50013 35C6.50013 36.3261 7.02691 37.5979 7.96459 38.5355C8.90228 39.4732 10.174 40 11.5001 40ZM37.5001 40C38.8262 40 40.098 39.4732 41.0357 38.5355C41.9733 37.5979 42.5001 36.3261 42.5001 35C42.5001 33.6739 41.9733 32.4021 41.0357 31.4645C40.098 30.5268 38.8262 30 37.5001 30C36.174 30 34.9023 30.5268 33.9646 31.4645C33.0269 32.4021 32.5001 33.6739 32.5001 35C32.5001 36.3261 33.0269 37.5979 33.9646 38.5355C34.9023 39.4732 36.174 40 37.5001 40Z" fill="#00ACEE"/>
<circle cx="38.7041" cy="9.79592" r="9.79592" fill="#00ABEE"/>
<path d="M42.8126 6.86323C42.7557 6.80585 42.6879 6.7603 42.6133 6.72921C42.5387 6.69813 42.4587 6.68213 42.3779 6.68213C42.2971 6.68213 42.217 6.69813 42.1424 6.72921C42.0678 6.7603 42.0001 6.80585 41.9432 6.86323L37.382 11.4306L35.4656 9.50813C35.4065 9.45104 35.3368 9.40616 35.2603 9.37603C35.1839 9.34591 35.1023 9.33113 35.0201 9.33255C34.938 9.33398 34.8569 9.35156 34.7815 9.38432C34.7062 9.41707 34.638 9.46434 34.5809 9.52343C34.5239 9.58253 34.479 9.65229 34.4488 9.72873C34.4187 9.80517 34.4039 9.8868 34.4054 9.96895C34.4068 10.0511 34.4244 10.1322 34.4571 10.2075C34.4899 10.2829 34.5372 10.351 34.5962 10.4081L36.9473 12.7591C37.0042 12.8165 37.0719 12.8621 37.1465 12.8932C37.2211 12.9242 37.3011 12.9402 37.382 12.9402C37.4628 12.9402 37.5428 12.9242 37.6174 12.8932C37.692 12.8621 37.7597 12.8165 37.8167 12.7591L42.8126 7.76323C42.8747 7.7059 42.9243 7.63632 42.9582 7.55887C42.9922 7.48142 43.0097 7.39778 43.0097 7.31323C43.0097 7.22868 42.9922 7.14504 42.9582 7.06759C42.9243 6.99014 42.8747 6.92056 42.8126 6.86323Z" fill="white"/>
</g>
<defs>
<clipPath id="clip0_109_228">
<rect width="48" height="48" fill="white" transform="translate(0.5)"/>
</clipPath>
</defs>
</svg>
