<svg width="49" height="48" viewBox="0 0 49 48" fill="none" xmlns="http://www.w3.org/2000/svg">
<g clip-path="url(#clip0_109_204)">
<path fill-rule="evenodd" clip-rule="evenodd" d="M36.5519 7.80395C36.2479 7.27795 35.6559 6.81995 35.1199 6.81995C34.1599 6.81995 32.9259 7.77995 32.1799 8.36195C31.0619 9.23195 29.7579 10.0579 28.3579 10.3459C27.3219 10.5559 26.0859 10.3979 24.9939 10.1119C24.8139 10.0659 23.2659 9.52395 23.2659 9.52395C21.1219 8.53395 20.1699 11.3479 19.3239 12.7339C18.7439 13.6799 18.0139 14.8079 17.1839 15.9459C16.8525 15.9153 16.5187 15.9679 16.2127 16.0989C15.9067 16.2299 15.6383 16.4353 15.4317 16.6962C15.2251 16.9572 15.087 17.2656 15.0297 17.5935C14.9725 17.9214 14.998 18.2584 15.1039 18.5739C14.4879 19.3279 13.9039 20.0499 13.3499 20.7459C12.9662 20.6376 12.5588 20.6465 12.1802 20.7714C11.8015 20.8963 11.4688 21.1315 11.2248 21.4469C10.9808 21.7623 10.8366 22.1434 10.8108 22.5413C10.785 22.9392 10.8787 23.3357 11.0799 23.6799C8.93592 26.5459 7.45992 28.8759 6.60792 30.9499C5.88792 32.7099 5.57992 34.3559 5.71392 36.0339C5.84792 37.6879 6.39792 39.2299 7.16792 40.7859C8.21192 42.8959 10.7719 43.4739 12.6459 42.3919L42.0899 25.3919C43.0086 24.8615 43.679 23.9878 43.9535 22.9631C44.2281 21.9385 44.0843 20.8467 43.5539 19.9279L36.5539 7.80395H36.5519ZM37.0879 16.7319L34.2499 11.8179C32.7219 12.9099 31.0159 13.8839 29.1599 14.2639C27.2519 14.6539 25.3219 14.3319 23.9859 13.9839C23.1639 13.7699 23.1779 14.0979 22.7359 14.8199C22.2319 15.6459 21.6079 16.6179 20.8959 17.6319L21.1179 17.7419C21.355 17.8573 21.567 18.0184 21.7417 18.216C21.9163 18.4135 22.0501 18.6437 22.1355 18.8932C22.2208 19.1427 22.2559 19.4066 22.2389 19.6698C22.2219 19.9329 22.1529 20.1901 22.0361 20.4265C21.9193 20.6629 21.7569 20.8739 21.5582 21.0472C21.3596 21.2206 21.1286 21.353 20.8785 21.4368C20.6285 21.5206 20.3644 21.5541 20.1014 21.5354C19.8383 21.5167 19.5816 21.4462 19.3459 21.3279L18.3999 20.8599C17.9239 21.4439 17.4719 21.9999 17.0399 22.5399C17.4802 22.8046 17.8018 23.2284 17.938 23.7237C18.0742 24.219 18.0147 24.7477 17.7717 25.2003C17.5287 25.6528 17.1209 25.9945 16.6328 26.1546C16.1447 26.3146 15.6137 26.2807 15.1499 26.0599L14.5259 25.7519C12.3539 28.6259 11.0219 30.7259 10.3059 32.4679C9.77592 33.7619 9.62592 34.7759 9.69992 35.7139C9.77392 36.6459 10.0839 37.6419 10.6959 38.8979L40.0879 21.9279L39.0879 20.1959L30.4279 25.1959C29.9688 25.457 29.4251 25.5258 28.9154 25.3874C28.4057 25.2491 27.9714 24.9147 27.7074 24.4573C27.4433 24 27.3709 23.4567 27.5058 22.9461C27.6408 22.4355 27.9723 21.999 28.4279 21.7319L37.0879 16.7319Z" fill="#00ACEE"/>
<circle cx="38.7041" cy="9.79592" r="9.79592" fill="#00ABEE"/>
<path d="M42.8123 6.86323C42.7554 6.80585 42.6877 6.7603 42.6131 6.72921C42.5385 6.69813 42.4585 6.68213 42.3776 6.68213C42.2968 6.68213 42.2168 6.69813 42.1422 6.72921C42.0676 6.7603 41.9999 6.80585 41.9429 6.86323L37.3817 11.4306L35.4654 9.50813C35.4063 9.45104 35.3365 9.40616 35.2601 9.37603C35.1837 9.34591 35.102 9.33113 35.0199 9.33255C34.9377 9.33398 34.8567 9.35156 34.7813 9.38432C34.7059 9.41707 34.6378 9.46434 34.5807 9.52343C34.5236 9.58253 34.4787 9.65229 34.4486 9.72873C34.4185 9.80517 34.4037 9.8868 34.4051 9.96895C34.4065 10.0511 34.4241 10.1322 34.4569 10.2075C34.4896 10.2829 34.5369 10.351 34.596 10.4081L36.947 12.7591C37.0039 12.8165 37.0717 12.8621 37.1463 12.8932C37.2209 12.9242 37.3009 12.9402 37.3817 12.9402C37.4625 12.9402 37.5426 12.9242 37.6172 12.8932C37.6918 12.8621 37.7595 12.8165 37.8164 12.7591L42.8123 7.76323C42.8745 7.7059 42.9241 7.63632 42.958 7.55887C42.9919 7.48142 43.0094 7.39778 43.0094 7.31323C43.0094 7.22868 42.9919 7.14504 42.958 7.06759C42.9241 6.99014 42.8745 6.92056 42.8123 6.86323Z" fill="white"/>
</g>
<defs>
<clipPath id="clip0_109_204">
<rect width="48" height="48" fill="white" transform="translate(0.5)"/>
</clipPath>
</defs>
</svg>
